<svg xmlns="http://www.w3.org/2000/svg" xmlns:xlink="http://www.w3.org/1999/xlink" width="1080" zoomAndPan="magnify" viewBox="0 0 810 809.999993" height="1080" preserveAspectRatio="xMidYMid meet" version="1.0"><path fill="#ffb300" d="M 810 405 C 810 628.640625 628.640625 810 405 810 C 181.359375 810 0 628.640625 0 405 C 0 181.359375 181.359375 0 405 0 C 628.640625 0 810 181.359375 810 405 Z M 810 405 " fill-opacity="1" fill-rule="nonzero"/><path fill="#ffffff" d="M 303.75 182.25 L 567 182.25 L 567 243 L 303.75 243 Z M 243 283.5 L 567 283.5 L 567 344.25 L 243 344.25 Z M 243 283.5 " fill-opacity="1" fill-rule="nonzero"/><path fill="#ffffff" d="M 332.929688 465.75 L 334.125 465.75 C 407.449219 465.75 486 408.785156 486 324 C 486 239.214844 407.449219 182.25 334.125 182.25 L 243 182.25 L 243 243 L 334.125 243 C 372.335938 243 425.25 271.167969 425.25 324 C 425.25 376.832031 372.335938 405 334.125 405 L 243 405 L 243 469.859375 L 456.820312 648 L 551.671875 648 Z M 332.929688 465.75 " fill-opacity="1" fill-rule="nonzero"/></svg>